<?xml version="1.0" encoding="UTF-8"?>
<!-- Generator: Adobe Illustrator 24.1.3, SVG Export Plug-In . SVG Version: 6.00 Build 0)  -->
<svg version="1.1" id="Layer_1" xmlns="http://www.w3.org/2000/svg" xmlns:xlink="http://www.w3.org/1999/xlink" x="0px" y="0px" width="198px" height="166px" viewBox="0 0 198 166" style="enable-background:new 0 0 198 166;" xml:space="preserve">
<style type="text/css">
	.st0{fill:#231F20;}
</style>
<g>
	<g>
		<path class="st0" d="M32.2661133,101.0984802v22.6542969h-4.4335938v-14.6923828l-6.3886719,10.5097656l-0.5214844,0.0175781    l-6.359375-10.4716797v14.6367188H10.097168v-22.6542969h4.5957031l6.4960938,10.6972656l6.4628906-10.6972656H32.2661133z"/>
		<path class="st0" d="M53.6274414,123.7527771l-1.4394531-4.078125h-9.3056641l-1.359375,4.078125h-4.8222656l7.9287109-22.6542969    h5.5341797l7.9921875,22.6542969H53.6274414z M44.3364258,115.4998474h6.3759766l-3.2685547-9.2558594L44.3364258,115.4998474z"/>
		<path class="st0" d="M75.0493164,123.7527771l-4.5800781-7.8642578h-3.3818359v7.8642578H62.621582v-22.6542969h9.0615234    c2.0927734,0,3.8730469,0.734375,5.3398438,2.2011719s2.2011719,3.2363281,2.2011719,5.3076172    c0,1.4023438-0.3994141,2.7021484-1.1972656,3.8994141c-0.7988281,1.1972656-1.8554688,2.0976563-3.171875,2.7021484    l5.0166016,8.5439453H75.0493164z M67.0874023,105.2732849v6.6992188h4.5957031    c0.8417969,0,1.5644531-0.328125,2.1689453-0.9873047c0.6035156-0.6572266,0.9052734-1.4501953,0.9052734-2.3779297    s-0.3017578-1.7158203-0.9052734-2.3632813c-0.6044922-0.6464844-1.3271484-0.9707031-2.1689453-0.9707031H67.0874023z"/>
		<path class="st0" d="M92.4604492,124.2059021c-2.2441406,0-4.1318359-0.5019531-5.6630859-1.5048828    c-1.5322266-1.0029297-2.6103516-2.3671875-3.2363281-4.09375l3.8193359-2.2333984    c0.8837891,2.3085938,2.6210938,3.4628906,5.2099609,3.4628906c1.2509766,0,2.1679688-0.2265625,2.7509766-0.6796875    c0.5820313-0.453125,0.8740234-1.0244141,0.8740234-1.7148438c0-0.7978516-0.3564453-1.4189453-1.0683594-1.8613281    c-0.7119141-0.4414063-1.9853516-0.921875-3.8183594-1.4394531c-1.0146484-0.3027344-1.8720703-0.6044922-2.5732422-0.90625    c-0.7011719-0.3027344-1.4023438-0.7070313-2.1035156-1.2138672s-1.2353516-1.1494141-1.6025391-1.9257813    c-0.3662109-0.7763672-0.5498047-1.6826172-0.5498047-2.71875c0-2.0488281,0.7285156-3.6835938,2.1845703-4.9023438    s3.2089844-1.8291016,5.2587891-1.8291016c1.8339844,0,3.4472656,0.4482422,4.8388672,1.34375    s2.4755859,2.140625,3.2519531,3.7373047l-3.7539063,2.1689453c-0.90625-1.9423828-2.3515625-2.9130859-4.3369141-2.9130859    c-0.9277344,0-1.65625,0.2099609-2.1845703,0.6308594s-0.7929688,0.9658203-0.7929688,1.6347656    c0,0.7119141,0.296875,1.2890625,0.890625,1.7314453c0.5927734,0.4423828,1.7314453,0.921875,3.4140625,1.4394531    c0.6904297,0.2167969,1.2138672,0.3837891,1.5693359,0.5019531c0.3564453,0.1191406,0.8417969,0.3027344,1.4570313,0.5498047    c0.6142578,0.2490234,1.0888672,0.4804688,1.4238281,0.6962891c0.3339844,0.2158203,0.7167969,0.5068359,1.1484375,0.8740234    s0.7607422,0.7441406,0.9873047,1.1328125c0.2265625,0.3876953,0.4208984,0.8574219,0.5820313,1.4072266    c0.1621094,0.5507813,0.2431641,1.1494141,0.2431641,1.7958984c0,2.09375-0.7607422,3.7548828-2.28125,4.984375    C96.878418,123.5906677,94.8989258,124.2059021,92.4604492,124.2059021z"/>
		<path class="st0" d="M118.9018555,101.0984802h4.4335938v22.6542969h-4.4335938v-9.3857422h-8.4150391v9.3857422h-4.4658203    v-22.6542969h4.4658203v8.9970703h8.4150391V101.0984802z"/>
		<path class="st0" d="M144.8588867,123.7527771l-1.4394531-4.078125h-9.3056641l-1.359375,4.078125h-4.8222656    l7.9287109-22.6542969h5.5341797l7.9921875,22.6542969H144.8588867z M135.5678711,115.4998474h6.3759766l-3.2685547-9.2558594    L135.5678711,115.4998474z"/>
		<path class="st0" d="M158.480957,119.4812927h8.6416016v4.2714844h-13.1074219v-22.6542969h4.4658203V119.4812927z"/>
		<path class="st0" d="M176.7006836,119.4812927h8.6416016v4.2714844h-13.1074219v-22.6542969h4.4658203V119.4812927z"/>
	</g>
</g>
<g>
	<g>
		<path class="st0" d="M91.6352539,159.9725037H89.840332v-0.5009766h0.5917969v-3.3632813H89.840332v-0.4941406h1.203125v3.8574219    h0.5917969V159.9725037z"/>
		<path class="st0" d="M92.949707,156.447113c0.0791016-0.1894531,0.1914063-0.3486328,0.3359375-0.4794922    c0.1445313-0.1298828,0.3164063-0.2294922,0.515625-0.2988281s0.4189453-0.1035156,0.6591797-0.1035156    c0.2851563,0,0.5322266,0.0556641,0.7412109,0.1679688c0.2099609,0.1113281,0.3818359,0.2666016,0.5166016,0.4638672    c0.1337891,0.1972656,0.2333984,0.4296875,0.2988281,0.6953125c0.0654297,0.2666016,0.0976563,0.5527344,0.0976563,0.8583984    c0,0.3417969-0.0380859,0.6533203-0.1132813,0.9335938c-0.0751953,0.28125-0.1865234,0.5214844-0.3349609,0.7207031    c-0.1494141,0.1992188-0.3310547,0.3535156-0.546875,0.4638672c-0.2158203,0.109375-0.4638672,0.1650391-0.7451172,0.1650391    c-0.2197266,0-0.4091797-0.0292969-0.5703125-0.0859375s-0.2988281-0.1289063-0.4150391-0.2167969    c-0.1162109-0.0869141-0.2119141-0.1845703-0.2871094-0.2929688c-0.0751953-0.1074219-0.1328125-0.2109375-0.1738281-0.3085938    l0.4941406-0.1826172c0.0371094,0.0810547,0.0810547,0.1552734,0.1318359,0.2226563s0.1142578,0.1259766,0.1923828,0.1767578    c0.0771484,0.0507813,0.1660156,0.0908203,0.2685547,0.1191406c0.1015625,0.0283203,0.2216797,0.0429688,0.359375,0.0429688    c0.2001953,0,0.3730469-0.0419922,0.5195313-0.125c0.1464844-0.0839844,0.2675781-0.1923828,0.3632813-0.3271484    c0.0957031-0.1337891,0.1669922-0.2861328,0.2128906-0.4570313c0.046875-0.1708984,0.0722656-0.3417969,0.0771484-0.5126953    c-0.0488281,0.0439453-0.1054688,0.0908203-0.1679688,0.1396484c-0.0634766,0.0488281-0.1386719,0.0947266-0.2265625,0.1376953    c-0.0869141,0.0429688-0.1875,0.0771484-0.3017578,0.1035156s-0.2441406,0.0400391-0.390625,0.0400391    c-0.2363281,0-0.4541016-0.03125-0.6533203-0.0947266s-0.3710938-0.1542969-0.515625-0.2744141    s-0.2578125-0.2675781-0.3388672-0.4433594c-0.0810547-0.1748047-0.1220703-0.3759766-0.1220703-0.6035156    C92.8305664,156.8514099,92.8706055,156.6365662,92.949707,156.447113z M93.972168,156.1697693    c-0.1386719,0.0527344-0.2529297,0.1230469-0.3417969,0.2099609c-0.0898438,0.0878906-0.15625,0.1884766-0.1982422,0.3027344    c-0.0429688,0.1142578-0.0644531,0.2314453-0.0644531,0.3535156c0,0.2929688,0.0917969,0.5244141,0.2744141,0.6933594    c0.1835938,0.1689453,0.4560547,0.2529297,0.8183594,0.2529297c0.1464844,0,0.2792969-0.015625,0.3994141-0.0488281    c0.1201172-0.0322266,0.2265625-0.0732422,0.3173828-0.1220703c0.0917969-0.0488281,0.1689453-0.1005859,0.2324219-0.1552734    s0.1152344-0.1074219,0.1552734-0.15625c-0.0117188-0.1953125-0.0429688-0.3789063-0.0947266-0.5517578    c-0.0507813-0.1728516-0.1220703-0.3222656-0.2128906-0.4492188c-0.0917969-0.1259766-0.2041016-0.2255859-0.3359375-0.2988281    c-0.1328125-0.0732422-0.2861328-0.109375-0.4609375-0.109375    C94.2729492,156.0906677,94.1108398,156.1170349,93.972168,156.1697693z"/>
		<path class="st0" d="M97.5708008,156.9900818c0.0664063-0.265625,0.1679688-0.5048828,0.3017578-0.7167969    c0.1347656-0.2119141,0.3027344-0.3828125,0.5068359-0.5126953c0.203125-0.1298828,0.4433594-0.1953125,0.7197266-0.1953125    c0.28125,0,0.5234375,0.0654297,0.7265625,0.1953125c0.2041016,0.1298828,0.3720703,0.3007813,0.5039063,0.5126953    s0.2304688,0.4511719,0.2958984,0.7167969c0.0654297,0.2666016,0.0976563,0.5341797,0.0976563,0.8027344    c0,0.2695313-0.03125,0.5371094-0.0947266,0.8027344c-0.0625,0.2666016-0.1601563,0.5068359-0.2929688,0.7207031    c-0.1318359,0.2138672-0.2998047,0.3867188-0.5029297,0.5185547c-0.2041016,0.1328125-0.4482422,0.1992188-0.7333984,0.1992188    c-0.2802734,0-0.5234375-0.0664063-0.7285156-0.1992188c-0.2060547-0.1318359-0.3759766-0.3037109-0.5097656-0.515625    c-0.1347656-0.2109375-0.2333984-0.4511719-0.296875-0.7197266c-0.0625-0.2685547-0.09375-0.5371094-0.09375-0.8066406    C97.4702148,157.5242615,97.503418,157.2566833,97.5708008,156.9900818z M100.097168,157.2107849    c-0.0341797-0.1982422-0.0908203-0.3769531-0.1708984-0.5380859c-0.0791016-0.1601563-0.1865234-0.2919922-0.3232422-0.3935547    c-0.1357422-0.1015625-0.3037109-0.1523438-0.5039063-0.1523438c-0.1992188,0-0.3662109,0.0507813-0.5,0.1523438    c-0.1347656,0.1015625-0.2431641,0.2333984-0.3261719,0.3935547c-0.0839844,0.1611328-0.1425781,0.3398438-0.1777344,0.5380859    c-0.0341797,0.1972656-0.0517578,0.3916016-0.0517578,0.5820313c0,0.1914063,0.0195313,0.3867188,0.0576172,0.5869141    c0.0390625,0.1992188,0.1005859,0.3798828,0.1835938,0.5429688s0.1923828,0.2949219,0.3261719,0.3964844    c0.1347656,0.1015625,0.2978516,0.1523438,0.4882813,0.1523438c0.2001953,0,0.3671875-0.0507813,0.5009766-0.1523438    c0.1347656-0.1015625,0.2421875-0.2333984,0.3232422-0.3964844c0.0820313-0.1630859,0.1396484-0.34375,0.1738281-0.5429688    c0.0351563-0.2001953,0.0527344-0.3955078,0.0527344-0.5869141    C100.1499023,157.6023865,100.1323242,157.4080505,100.097168,157.2107849z"/>
		<path class="st0" d="M102.2094727,156.9900818c0.0664063-0.265625,0.1679688-0.5048828,0.3017578-0.7167969    c0.1347656-0.2119141,0.3027344-0.3828125,0.5068359-0.5126953c0.203125-0.1298828,0.4433594-0.1953125,0.7197266-0.1953125    c0.28125,0,0.5234375,0.0654297,0.7265625,0.1953125c0.2041016,0.1298828,0.3720703,0.3007813,0.5039063,0.5126953    s0.2304688,0.4511719,0.2958984,0.7167969c0.0654297,0.2666016,0.0976563,0.5341797,0.0976563,0.8027344    c0,0.2695313-0.03125,0.5371094-0.0947266,0.8027344c-0.0625,0.2666016-0.1601563,0.5068359-0.2929688,0.7207031    c-0.1318359,0.2138672-0.2998047,0.3867188-0.5029297,0.5185547c-0.2041016,0.1328125-0.4482422,0.1992188-0.7333984,0.1992188    c-0.2802734,0-0.5234375-0.0664063-0.7285156-0.1992188c-0.2060547-0.1318359-0.3759766-0.3037109-0.5097656-0.515625    c-0.1347656-0.2109375-0.2333984-0.4511719-0.296875-0.7197266c-0.0625-0.2685547-0.09375-0.5371094-0.09375-0.8066406    C102.1088867,157.5242615,102.1420898,157.2566833,102.2094727,156.9900818z M104.7358398,157.2107849    c-0.0341797-0.1982422-0.0908203-0.3769531-0.1708984-0.5380859c-0.0791016-0.1601563-0.1865234-0.2919922-0.3232422-0.3935547    c-0.1357422-0.1015625-0.3037109-0.1523438-0.5039063-0.1523438c-0.1992188,0-0.3662109,0.0507813-0.5,0.1523438    c-0.1347656,0.1015625-0.2431641,0.2333984-0.3261719,0.3935547c-0.0839844,0.1611328-0.1425781,0.3398438-0.1777344,0.5380859    c-0.0341797,0.1972656-0.0517578,0.3916016-0.0517578,0.5820313c0,0.1914063,0.0195313,0.3867188,0.0576172,0.5869141    c0.0390625,0.1992188,0.1005859,0.3798828,0.1835938,0.5429688s0.1923828,0.2949219,0.3261719,0.3964844    c0.1347656,0.1015625,0.2978516,0.1523438,0.4882813,0.1523438c0.2001953,0,0.3671875-0.0507813,0.5009766-0.1523438    c0.1347656-0.1015625,0.2421875-0.2333984,0.3232422-0.3964844c0.0820313-0.1630859,0.1396484-0.34375,0.1738281-0.5429688    c0.0351563-0.2001953,0.0527344-0.3955078,0.0527344-0.5869141    C104.7885742,157.6023865,104.7709961,157.4080505,104.7358398,157.2107849z"/>
	</g>
</g>
<path class="st0" d="M83.9033737,158.4029083H71.1254959c-0.2986374,0-0.5408707-0.242218-0.5408707-0.540863  c0-0.2986298,0.2422333-0.540863,0.5408707-0.540863h12.7778778c0.2986374,0,0.540863,0.2422333,0.540863,0.540863  C84.4442368,158.1606903,84.2020111,158.4029083,83.9033737,158.4029083z"/>
<path class="st0" d="M123.7450638,158.4029083h-12.7760086c-0.2988205,0-0.5406723-0.242218-0.5406723-0.540863  c0-0.2986298,0.2418518-0.540863,0.5406723-0.540863h12.7760086c0.2988205,0,0.5406723,0.2422333,0.5406723,0.540863  C124.2857361,158.1606903,124.0438843,158.4029083,123.7450638,158.4029083z"/>
<g>
	<path class="st0" d="M58.9692383,145.657074h-4.0458984v-1.4121094h1.1191406v-8.0048828l-3.6835938,9.4169922h-1.0673828   l-3.6845703-9.4169922v8.0048828h1.1708984v1.4121094h-4.0458984v-1.4121094h1.1191406v-9.4677734h-1.1191406v-1.4121094h3.4082031   l3.6845703,9.296875l3.6845703-9.296875h3.4599609v1.4121094h-1.1708984v9.4677734h1.1708984V145.657074z"/>
	<path class="st0" d="M73.9008789,145.657074H70.284668v-1.4121094h1.0849609l-0.6025391-1.9101563h-4.4072266l-0.6025391,1.9101563   h1.0849609v1.4121094h-3.6152344v-1.4121094h0.9121094l3.0126953-9.4853516h-1.1367188v-1.3945313h5.0966797v1.3945313h-1.1367188   l3.0126953,9.4853516h0.9130859V145.657074z M66.8588867,140.7332458h3.4091797l-1.7041016-5.3710938L66.8588867,140.7332458z"/>
	<path class="st0" d="M79.3100586,145.657074v-1.4121094h1.1533203v-9.4677734h-1.7558594v1.6523438h-1.4121094v-3.0644531   h8.0742188v3.0644531h-1.3945313v-1.6523438h-1.7558594v9.4677734h1.1875v1.4121094H79.3100586z"/>
	<path class="st0" d="M91.855957,145.657074v-1.4121094h1.1533203v-9.4677734H91.253418v1.6523438h-1.4121094v-3.0644531h8.0742188   v3.0644531h-1.3945313v-1.6523438h-1.7558594v9.4677734h1.1875v1.4121094H91.855957z"/>
	<path class="st0" d="M106.4067383,144.2449646v1.4121094h-4.0966797v-1.4121094h1.1357422v-9.4677734h-1.1357422v-1.4121094   h5.1816406c0.5166016,0,0.9814453,0.0917969,1.3945313,0.2753906s0.7626953,0.4306641,1.0498047,0.7402344   s0.5078125,0.671875,0.6630859,1.0849609s0.2324219,0.8496094,0.2324219,1.3076172   c0,0.6435547-0.1064453,1.1738281-0.3183594,1.5927734c-0.2128906,0.4189453-0.4677734,0.7519531-0.7666016,0.9990234   c-0.2988281,0.2460938-0.6083984,0.4248047-0.9296875,0.5332031c-0.3212891,0.109375-0.5908203,0.1699219-0.8085938,0.1806641   l2.8398438,4.1660156h1.1542969v1.4121094h-2.2216797l-3.6494141-5.578125h-0.9296875v4.1660156H106.4067383z    M108.9975586,136.0682068c-0.0625-0.2294922-0.1630859-0.4394531-0.3007813-0.6289063s-0.3212891-0.3408203-0.5507813-0.4560547   c-0.2304688-0.1142578-0.5107422-0.171875-0.84375-0.171875h-2.1005859v3.8564453h2.1005859   c0.6542969,0,1.1162109-0.1835938,1.3857422-0.5507813s0.4042969-0.8154297,0.4042969-1.34375   C109.0922852,136.5330505,109.0610352,136.297699,108.9975586,136.0682068z"/>
	<path class="st0" d="M117.5913086,144.2449646v-9.4677734h-1.1533203v-1.4121094h8.7285156v2.6337891h-1.3945313v-1.2216797   h-4.4248047v3.7177734h2.8583984v1.4121094h-2.8583984v4.3378906h4.4248047v-1.3945313h1.3945313v2.8066406h-8.7285156v-1.4121094   H117.5913086z"/>
	<path class="st0" d="M136.2670898,141.3963318c-0.109375-0.2470703-0.2929688-0.4736328-0.5507813-0.6796875   c-0.2587891-0.2070313-0.5947266-0.3964844-1.0078125-0.5683594c-0.4130859-0.1728516-0.9238281-0.3330078-1.5322266-0.4824219   c-0.4472656-0.1035156-0.8691406-0.2353516-1.2646484-0.3955078c-0.3964844-0.1611328-0.7402344-0.3642578-1.0332031-0.6113281   s-0.5253906-0.5449219-0.6972656-0.8955078c-0.171875-0.3496094-0.2587891-0.7773438-0.2587891-1.2822266   c0-0.5166016,0.0976563-0.9755859,0.2929688-1.3779297c0.1953125-0.4013672,0.4677734-0.7402344,0.8173828-1.015625   c0.3505859-0.2753906,0.7695313-0.4873047,1.2568359-0.6367188c0.4882813-0.1494141,1.0185547-0.2236328,1.5927734-0.2236328   c0.5966797,0,1.0791016,0.0605469,1.4462891,0.1806641s0.6708984,0.2607422,0.9121094,0.421875v-0.5341797h1.4121094v2.9619141   h-1.4121094v-0.8955078c-0.0917969-0.0693359-0.2089844-0.1435547-0.3525391-0.2236328s-0.3134766-0.1611328-0.5078125-0.2412109   c-0.1953125-0.0800781-0.4160156-0.1464844-0.6630859-0.1982422s-0.5253906-0.0771484-0.8349609-0.0771484   c-0.3671875,0-0.6972656,0.0488281-0.9902344,0.1464844c-0.2919922,0.0976563-0.5419922,0.2236328-0.7480469,0.3789063   c-0.2070313,0.1542969-0.3652344,0.3349609-0.4736328,0.5419922c-0.109375,0.2060547-0.1640625,0.4189453-0.1640625,0.6367188   c0,0.2529297,0.0400391,0.4677734,0.1210938,0.6455078c0.0800781,0.1787109,0.2207031,0.3388672,0.421875,0.4824219   c0.2001953,0.1435547,0.4697266,0.2783203,0.8085938,0.4042969c0.3388672,0.1269531,0.7607422,0.2587891,1.265625,0.3964844   c1.2851563,0.3671875,2.2548828,0.8574219,2.9091797,1.4716797s0.9814453,1.4257813,0.9814453,2.4355469   c0,0.5507813-0.1005859,1.0507813-0.3007813,1.4980469c-0.2011719,0.4472656-0.4853516,0.8261719-0.8525391,1.1367188   c-0.3671875,0.3095703-0.8066406,0.5478516-1.3173828,0.7138672s-1.0820313,0.25-1.7128906,0.25   c-0.34375,0-0.6572266-0.0322266-0.9384766-0.0947266c-0.28125-0.0634766-0.5273438-0.140625-0.7402344-0.2324219   c-0.2119141-0.0917969-0.3955078-0.1865234-0.5507813-0.2841797c-0.1542969-0.0976563-0.2724609-0.1865234-0.3525391-0.2666016   v0.7744141h-1.3945313v-3.4775391h1.3769531v1.0332031c0.0576172,0.0683594,0.1582031,0.1660156,0.3017578,0.2919922   c0.1435547,0.1269531,0.3212891,0.2529297,0.5332031,0.3789063c0.2128906,0.1269531,0.4619141,0.2353516,0.7490234,0.3271484   s0.6025391,0.1376953,0.9472656,0.1376953c0.4589844,0,0.8574219-0.0625,1.1962891-0.1894531   c0.3378906-0.1259766,0.6162109-0.2890625,0.8349609-0.4902344c0.2177734-0.2011719,0.3789063-0.4277344,0.4814453-0.6796875   c0.1035156-0.2529297,0.1552734-0.5058594,0.1552734-0.7578125   C136.4301758,141.9217224,136.3754883,141.6434021,136.2670898,141.3963318z"/>
	<path class="st0" d="M148.8911133,141.3963318c-0.109375-0.2470703-0.2929688-0.4736328-0.5507813-0.6796875   c-0.2587891-0.2070313-0.5947266-0.3964844-1.0078125-0.5683594c-0.4130859-0.1728516-0.9238281-0.3330078-1.5322266-0.4824219   c-0.4472656-0.1035156-0.8691406-0.2353516-1.2646484-0.3955078c-0.3964844-0.1611328-0.7402344-0.3642578-1.0332031-0.6113281   s-0.5253906-0.5449219-0.6972656-0.8955078c-0.171875-0.3496094-0.2587891-0.7773438-0.2587891-1.2822266   c0-0.5166016,0.0976563-0.9755859,0.2929688-1.3779297c0.1953125-0.4013672,0.4677734-0.7402344,0.8173828-1.015625   c0.3505859-0.2753906,0.7695313-0.4873047,1.2568359-0.6367188c0.4882813-0.1494141,1.0185547-0.2236328,1.5927734-0.2236328   c0.5966797,0,1.0791016,0.0605469,1.4462891,0.1806641s0.6708984,0.2607422,0.9121094,0.421875v-0.5341797h1.4121094v2.9619141   h-1.4121094v-0.8955078c-0.0917969-0.0693359-0.2089844-0.1435547-0.3525391-0.2236328s-0.3134766-0.1611328-0.5078125-0.2412109   c-0.1953125-0.0800781-0.4160156-0.1464844-0.6630859-0.1982422s-0.5253906-0.0771484-0.8349609-0.0771484   c-0.3671875,0-0.6972656,0.0488281-0.9902344,0.1464844c-0.2919922,0.0976563-0.5419922,0.2236328-0.7480469,0.3789063   c-0.2070313,0.1542969-0.3652344,0.3349609-0.4736328,0.5419922c-0.109375,0.2060547-0.1640625,0.4189453-0.1640625,0.6367188   c0,0.2529297,0.0400391,0.4677734,0.1210938,0.6455078c0.0800781,0.1787109,0.2207031,0.3388672,0.421875,0.4824219   c0.2001953,0.1435547,0.4697266,0.2783203,0.8085938,0.4042969c0.3388672,0.1269531,0.7607422,0.2587891,1.265625,0.3964844   c1.2851563,0.3671875,2.2548828,0.8574219,2.9091797,1.4716797s0.9814453,1.4257813,0.9814453,2.4355469   c0,0.5507813-0.1005859,1.0507813-0.3007813,1.4980469c-0.2011719,0.4472656-0.4853516,0.8261719-0.8525391,1.1367188   c-0.3671875,0.3095703-0.8066406,0.5478516-1.3173828,0.7138672s-1.0820313,0.25-1.7128906,0.25   c-0.34375,0-0.6572266-0.0322266-0.9384766-0.0947266c-0.28125-0.0634766-0.5273438-0.140625-0.7402344-0.2324219   c-0.2119141-0.0917969-0.3955078-0.1865234-0.5507813-0.2841797c-0.1542969-0.0976563-0.2724609-0.1865234-0.3525391-0.2666016   v0.7744141h-1.3945313v-3.4775391h1.3769531v1.0332031c0.0576172,0.0683594,0.1582031,0.1660156,0.3017578,0.2919922   c0.1435547,0.1269531,0.3212891,0.2529297,0.5332031,0.3789063c0.2128906,0.1269531,0.4619141,0.2353516,0.7490234,0.3271484   s0.6025391,0.1376953,0.9472656,0.1376953c0.4589844,0,0.8574219-0.0625,1.1962891-0.1894531   c0.3378906-0.1259766,0.6162109-0.2890625,0.8349609-0.4902344c0.2177734-0.2011719,0.3789063-0.4277344,0.4814453-0.6796875   c0.1035156-0.2529297,0.1552734-0.5058594,0.1552734-0.7578125   C149.0541992,141.9217224,148.9995117,141.6434021,148.8911133,141.3963318z"/>
</g>
<path class="st0" d="M115.3793411,21.4773674l2.2250671-3.7710323l0.3460693,4.364706  c0.9035416,11.4019089,3.305748,22.6107559,6.7640152,31.562191c5.6969147,14.7477798,13.9956055,22.6067734,24.0102234,22.7801666  c0.7736511,0,1.4012299-0.6275787,1.4012299-1.4012222c0-0.7737122-0.6392212-1.4033432-1.4128723-1.4033432  c-11.0393066-0.2321548-17.709137-11.5121956-21.370491-20.9906387c-3.3139496-8.5783386-5.7137451-19.793457-6.5834961-30.769659  l-1.0502777-13.2509851l-6.755806,11.4477625c-4.2092285,7.1329498-10.0954056,17.7744274-15.4674301,29.8162212  c-5.3720169-12.0417938-11.258255-22.6832714-15.4674835-29.8162212L75.2622757,8.5975504l-1.0502701,13.2509851  c-0.869751,10.976202-3.2695465,22.1913204-6.5834961,30.769659c-3.6613503,9.4784431-10.3311882,20.7584839-21.3704987,20.9906387  c-0.7737045,0-1.4128685,0.629631-1.4128685,1.4033432c0,0.7736435,0.6275177,1.4012222,1.401226,1.4012222  c10.0146179-0.1733932,18.3133163-8.0323868,24.010231-22.7801666c3.4582672-8.9514351,5.8604736-20.1602821,6.7640152-31.562191  l0.3460693-4.364706l2.2250671,3.7710323c4.4447098,7.5320511,10.7797012,19.0128746,16.3621597,31.8914871  c-0.5038376,1.179142-1.0019455,2.3673935-1.4905167,3.5668068c-4.9279785-11.7434502-10.6187363-22.500103-15.0960846-30.3343601  c-1.1381149,10.153265-3.416275,19.9715595-6.5294418,28.029108c-5.9305801,15.3535233-14.6994476,23.7692032-25.4168243,24.491806  l-0.0772247,0.006218c-0.7420311,0.046814-1.329731,0.6637802-1.329731,1.4176331  c0,0.7842636,0.6361465,1.4204712,1.4204712,1.4204712c8.6853714-0.5233231,20.0862541-5.7521744,28.0313988-26.3206062  c2.3249817-6.0173416,4.1952972-12.9802132,5.4912415-20.3253517c3.769043,7.055603,8.1576996,15.941761,11.9962463,25.4325714  c-3.0414276,7.9020691-5.6364594,16.1077957-7.2486649,24.112915l-0.0021133,0.014061  c-0.0197296,0.0937576-0.0300446,0.1909485-0.0300446,0.2905579c0,0.7771454,0.6302948,1.4071426,1.4078598,1.4071426  c0.6844711,0,1.254921-0.4882126,1.3816147-1.1352234l0.0039291-0.0176163  c1.383728-6.8721924,3.5086441-13.9054718,6.0233078-20.7646332c0.5121078,1.3458405,1.0078583,2.6998291,1.4888916,4.0596085  c-0.7895126,2.2846146-1.5300369,4.5818405-2.2068481,6.8793716l-0.1230164,0.4340286  c-0.4730148,1.626091-1.0613785,3.6498871-1.2457504,6.6066666c-0.2027206,3.2468643,0.3571701,5.5983887,1.6642151,6.9894257  c0.8625183,0.9180222,2.0445557,1.4030914,3.4186859,1.4030914c1.3741379,0,2.5561752-0.4850693,3.4186935-1.4030914  c1.307045-1.391037,1.8669357-3.7425613,1.6642151-6.9894257c-0.1843719-2.9567795-0.7727432-4.9805756-1.2457504-6.6066666  l-0.1230164-0.4340286c-0.6768112-2.2975311-1.4173355-4.5948181-2.2068481-6.8794327  c0.4810333-1.3597794,0.9768448-2.713707,1.4889526-4.0595474c2.5146637,6.8591614,4.6395798,13.8924408,6.0233078,20.7646332  l0.0038605,0.0176163c0.1267624,0.6470108,0.6971436,1.1352234,1.3816223,1.1352234  c0.777565,0,1.4079208-0.6299973,1.4079208-1.4071426c0-0.0996094-0.010376-0.1968002-0.0300446-0.2905579l-0.0021133-0.014061  c-1.6122055-8.0051193-4.2072372-16.2108459-7.2486649-24.112915c3.8385468-9.4908104,8.2271423-18.3769684,11.9962463-25.4325714  c1.2959442,7.3451385,3.1662598,14.3080101,5.4912338,20.3253517c7.9451523,20.5684319,19.3460388,25.7972832,28.0314026,26.3206062  c0.7842712,0,1.4204712-0.6362076,1.4204712-1.4204712c0-0.7538528-0.5876923-1.3708191-1.3297882-1.4176331l-0.0772247-0.006218  c-10.7173157-0.7226028-19.4861908-9.1382828-25.4167709-24.491806c-3.1131592-8.0575485-5.3913269-17.875843-6.5294418-28.029108  c-4.4773483,7.8342571-10.168045,18.59091-15.096077,30.3343601c-0.4885712-1.1994133-0.9866791-2.3876648-1.4905167-3.5668068  C104.5996399,40.490242,110.9346313,29.0094185,115.3793411,21.4773674z M98.4798584,76.377861l0.1283264,0.4446564  c0.4339142,1.4919052,0.973526,3.3491821,1.1385956,5.9932022c0.1476974,2.3684235-0.1727905,4.1006927-0.9030533,4.8777771  c-0.2061005,0.2196121-0.5714722,0.5116196-1.3582153,0.5116196c-0.7867355,0-1.1521072-0.2920074-1.3582077-0.5116196  c-0.7302628-0.7770844-1.0507507-2.5093536-0.9030609-4.8777771c0.1650772-2.6440201,0.704689-4.501297,1.1386032-5.9932022  l0.1283875-0.4446564c0.3167419-1.0680695,0.6509247-2.1363754,0.994339-3.2039642  C97.8289871,74.2414856,98.1631088,75.3097916,98.4798584,76.377861z M98.9744644,60.6867867  c-0.5080643,1.2779655-1.0057449,2.5626907-1.4888916,3.8564034c-0.483139-1.2937126-0.9808884-2.5784378-1.488945-3.8564034  c0.4859161-1.2413445,0.9834824-2.4730988,1.488945-3.6963425C97.9910431,58.2136879,98.4885483,59.4454422,98.9744644,60.6867867z"/>
<g>
	<path class="st0" d="M187.7592773,120.7674255c0.1152344-0.2607422,0.2705078-0.4863281,0.4677734-0.6777344   s0.4267578-0.3408203,0.6884766-0.4501953c0.2626953-0.109375,0.5410156-0.1640625,0.8349609-0.1640625   c0.2949219,0,0.5722656,0.0546875,0.8320313,0.1640625c0.2607422,0.109375,0.4882813,0.2587891,0.6835938,0.4501953   s0.3496094,0.4169922,0.4648438,0.6777344c0.1142578,0.2597656,0.171875,0.5410156,0.171875,0.8427734   c0,0.3105469-0.0576172,0.5966797-0.171875,0.8583984c-0.1152344,0.2617188-0.2695313,0.4892578-0.4648438,0.6826172   s-0.4228516,0.34375-0.6835938,0.4501953c-0.2597656,0.1074219-0.5371094,0.1611328-0.8320313,0.1611328   c-0.2939453,0-0.5722656-0.0537109-0.8349609-0.1611328c-0.2617188-0.1064453-0.4912109-0.2568359-0.6884766-0.4501953   s-0.3525391-0.4208984-0.4677734-0.6826172c-0.1142578-0.2617188-0.171875-0.5478516-0.171875-0.8583984   C187.5874023,121.3084412,187.6450195,121.0271912,187.7592773,120.7674255z M188.112793,122.3426208   c0.0898438,0.2236328,0.2138672,0.4179688,0.3730469,0.5820313c0.1582031,0.1650391,0.3457031,0.2939453,0.5625,0.3876953   c0.2158203,0.09375,0.4501953,0.140625,0.7021484,0.140625c0.2490234,0,0.4804688-0.046875,0.6943359-0.140625   c0.2148438-0.09375,0.4013672-0.2226563,0.5595703-0.3876953c0.1591797-0.1640625,0.2832031-0.3583984,0.3730469-0.5820313   c0.0898438-0.2246094,0.1347656-0.4677734,0.1347656-0.7324219c0-0.2558594-0.0449219-0.4951172-0.1347656-0.7167969   s-0.2138672-0.4140625-0.3730469-0.5771484c-0.1582031-0.1621094-0.3447266-0.2900391-0.5595703-0.3837891   c-0.2138672-0.09375-0.4453125-0.140625-0.6943359-0.140625c-0.2519531,0-0.4863281,0.046875-0.7021484,0.140625   c-0.2167969,0.09375-0.4042969,0.2216797-0.5625,0.3837891c-0.1591797,0.1630859-0.2832031,0.3554688-0.3730469,0.5771484   s-0.1347656,0.4609375-0.1347656,0.7167969C187.9780273,121.8748474,188.0229492,122.1180115,188.112793,122.3426208z    M189.8833008,120.3650818c0.2978516,0,0.5185547,0.0595703,0.6621094,0.1777344   c0.1435547,0.1191406,0.2158203,0.2988281,0.2158203,0.5400391c0,0.2255859-0.0634766,0.390625-0.1894531,0.4960938   c-0.1269531,0.1054688-0.2832031,0.1679688-0.4707031,0.1865234l0.7167969,1.1074219h-0.4189453l-0.6826172-1.0791016h-0.4130859   v1.0791016h-0.390625v-2.5078125H189.8833008z M189.7104492,121.478363c0.0878906,0,0.171875-0.0029297,0.25-0.0087891   c0.078125-0.0048828,0.1484375-0.0214844,0.2089844-0.0488281c0.0615234-0.0263672,0.1103516-0.0673828,0.1464844-0.1230469   s0.0546875-0.1328125,0.0546875-0.2324219c0-0.0839844-0.0166016-0.1513672-0.0488281-0.2011719   c-0.0322266-0.0488281-0.0742188-0.0878906-0.1259766-0.1142578s-0.1113281-0.0449219-0.1777344-0.0546875   c-0.0673828-0.0097656-0.1337891-0.0146484-0.1982422-0.0146484h-0.5166016v0.7978516H189.7104492z"/>
</g>
</svg>